inDegrees=no
num_controls=7
num_derivatives=13
num_iterations=270
num_multipliers=7
num_parameters=0
num_slacks=7
num_states=26
objective=6.239517
objective_accelerations=0.511367
objective_balance=0.078123
objective_effort=0.480845
objective_height=5.071924
objective_ligament=0.097258
solver_duration=2311.238098
status=Solve_Succeeded
success=true
DataType=double
version=3
OpenSimVersion=4.4-2022-07-23-0e9fedc
endheader
time	/jointset/ground_pelvis/pelvis_tilt/value	/jointset/ground_pelvis/pelvis_tx/value	/jointset/ground_pelvis/pelvis_ty/value	/jointset/hip_r/hip_flexion_r/value	/jointset/hip_r/hip_adduction_r/value	/jointset/hip_r/hip_rotation_r/value	/jointset/back/lumbar_extension/value	/jointset/patellofemoral_r/patellar_flexion_r/value	/jointset/knee_r/knee_flexion_r/value	/jointset/knee_r/knee_adduction_r/value	/jointset/knee_r/knee_rotation_r/value	/jointset/ankle_r/ankle_angle_r/value	/jointset/subtalar_r/subtalar_angle_r/value	/jointset/ground_pelvis/pelvis_tilt/speed	/jointset/ground_pelvis/pelvis_tx/speed	/jointset/ground_pelvis/pelvis_ty/speed	/jointset/hip_r/hip_flexion_r/speed	/jointset/hip_r/hip_adduction_r/speed	/jointset/hip_r/hip_rotation_r/speed	/jointset/back/lumbar_extension/speed	/jointset/patellofemoral_r/patellar_flexion_r/speed	/jointset/knee_r/knee_flexion_r/speed	/jointset/knee_r/knee_adduction_r/speed	/jointset/knee_r/knee_rotation_r/speed	/jointset/ankle_r/ankle_angle_r/speed	/jointset/subtalar_r/subtalar_angle_r/speed	/forceset/tau_hip_flexion_r	/forceset/tau_hip_adduction_r	/forceset/tau_hip_rotation_r	/forceset/tau_knee_flexion_r	/forceset/tau_ankle_angle_r	/forceset/tau_subtalar_angle_r	/forceset/tau_lumbar_extension	lambda_cid13_p0	lambda_cid14_p0	lambda_cid14_p1	lambda_cid14_p2	lambda_cid14_p3	lambda_cid14_p4	lambda_cid14_p5	/jointset/ground_pelvis/pelvis_tilt/accel	/jointset/ground_pelvis/pelvis_tx/accel	/jointset/ground_pelvis/pelvis_ty/accel	/jointset/hip_r/hip_flexion_r/accel	/jointset/hip_r/hip_adduction_r/accel	/jointset/hip_r/hip_rotation_r/accel	/jointset/back/lumbar_extension/accel	/jointset/patellofemoral_r/patellar_flexion_r/accel	/jointset/knee_r/knee_flexion_r/accel	/jointset/knee_r/knee_adduction_r/accel	/jointset/knee_r/knee_rotation_r/accel	/jointset/ankle_r/ankle_angle_r/accel	/jointset/subtalar_r/subtalar_angle_r/accel	gamma_cid13_p0	gamma_cid14_p0	gamma_cid14_p1	gamma_cid14_p2	gamma_cid14_p3	gamma_cid14_p4	gamma_cid14_p5
0.5	-0.1439990990104207	0.04374056158691004	0.8454088763950888	0.7926686924968527	-0.2436666059214489	-0.1003526624082903	-0.3170249854507508	0.7544473575496825	0.7544473575496284	0.07033888411765531	0.1745329196299371	0.2742754050794621	0.04080163667918742	-0.3860439615916996	-0.1198472730900189	-0.4005195332796859	1.702015247988295	-0.03117735601975455	0.3860331097525783	-0.6009707747393297	1.840922793940522	1.840922793940502	-0.1632488896069573	3.364452142476617e-06	0.6102880656923821	0.118345966711077	-0.1039007723088415	-0.01543429582534557	0.01350457968677393	-0.3337201521460891	0.04411559180221851	-0.008838932237524615	0.1523507848785074	-28.16737760301616	-27.54616395402624	-4.709183949594863	-3.304190936577093	6.529778896247812	-664.1486943925999	58.06687866500027	0.158231296905079	0.2721035264176525	-0.4219308518005196	-0.8837850592042985	0.06939472443371371	-0.2818634320303227	1.316994231496504	-1.266773715954191	-1.266773715954155	0.5694734201615157	-0.02870230912780488	-0.6480029717149471	-0.01389727668360828	-1.352648557074035e-07	-7.821070643070681e-08	1.440372196675046e-06	-6.702869208189692e-07	-1.076014619242494e-07	-1.580742855336915e-07	1.048779478021374e-06
0.51	-0.1478509215646546	0.04255588209663788	0.8413834870595268	0.8096419200540761	-0.2439755064903178	-0.09650733359067369	-0.3229682294109101	0.7727905034507591	0.7727905034507477	0.06873580216574113	0.1745329185994564	0.2803447939290452	0.04198331909402865	-0.3842666944363498	-0.1170724972177718	-0.4044676839782438	1.692393917956625	-0.03059875380529822	0.3830106198504559	-0.5876017698955093	1.827446128221708	1.827446128221694	-0.1573651084413709	-1.299924236877893e-06	0.6035063242958993	0.1179734306233591	-0.1100471501454918	-0.01377742884022349	0.01395012379172122	-0.3368321208446799	0.04010710523737452	-0.007747930025605638	0.1578457277885434	-27.05951932569362	-28.98772442342133	-4.583105585455246	-3.215393258379402	7.011469091765989	-668.0330170897287	58.18365009906164	0.1955455110847781	0.2825624582933187	-0.367689163703618	-1.03676739617968	0.05270366589511714	-0.3159262204569784	1.358290720361652	-1.427125569535194	-1.427125569534441	0.5983623813242208	0.01389464505973053	-0.7057979070423076	-0.05135115738070187	-1.26380758778488e-07	-7.053649177849055e-08	1.357693819955951e-06	-6.234586861242643e-07	-1.05638915101888e-07	-1.386756081680006e-07	9.887485377291431e-07
0.52	-0.1516833572300886	0.04139942993322122	0.8373213298200153	0.8265118422267763	-0.2442784988978545	-0.09269292656230813	-0.3287754959007238	0.7909910801807098	0.7909910801807408	0.06719166440879679	0.1745329195546008	0.286343857727978	0.04316079227147968	-0.3821665838316053	-0.1142018077189202	-0.4078731140696061	1.681354171083703	-0.02999572375310058	0.3798487519021824	-0.5737752806702151	1.812408959715284	1.812408959715275	-0.1514600506131031	3.761577492983562e-06	0.5962230555623219	0.1175041192330486	-0.1161935279821406	-0.01212056185510072	0.01439566789666086	-0.3399440895432701	0.03609861867253076	-0.006656927813685468	0.1633406706985805	-25.94265489490473	-30.43465535302902	-4.453407490146332	-3.132381581595838	7.492665380249488	-672.0059019433521	58.35672968829814	0.2227999867840093	0.2912862517385719	-0.3133867303613669	-1.167468427454522	0.07428029198197277	-0.3097390412605484	1.408491107791241	-1.578874273476226	-1.578874273476237	0.5737287526978239	-0.02675713350595959	-0.7483084391338768	-0.03325233720210971	-1.176716478928214e-07	-6.298023708793963e-08	1.278688424118861e-06	-5.761272073551151e-07	-1.036835528491124e-07	-1.212206351855164e-07	9.306269141910183e-07
0.53	-0.1554932569370398	0.04027212784849887	0.8332278581413352	0.8432644724655394	-0.2445752839640879	-0.08891076877615137	-0.3344422627481584	0.8090336630384362	0.8090336630384398	0.06570652380052168	0.174532920567694	0.2922676868155707	0.04433317013056623	-0.3797619189761067	-0.1112456783189131	-0.4107267502653552	1.668943007012317	-0.02935780126034474	0.376560943890643	-0.5595127303732007	1.795858494068471	1.795858494068466	-0.1455686365088842	-1.445485640441483e-06	0.5884658403511168	0.1169546318367353	-0.1222026523571364	-0.01060596813870528	0.01481520460106114	-0.3432259724073317	0.03234084951001789	-0.005670119156279086	0.1687188477050587	-24.81871952856785	-31.81007326297015	-4.361069506363402	-3.03812461788943	7.944719534249328	-676.0380669507024	58.4953250513921	0.2570091258873179	0.299695388843548	-0.257203764494823	-1.312278122723072	0.05907930667963982	-0.3417378703480366	1.444940757164428	-1.730477755070279	-1.730477755069603	0.5969176373213777	0.0128352029168187	-0.8009940032410532	-0.06819052250824578	-1.092934714705017e-07	-5.556802966695914e-08	1.205929808968018e-06	-5.288926098854915e-07	-1.020334799301586e-07	-1.053502302109802e-07	8.765228224196521e-07
0.54	-0.1592775681172456	0.03917477087871895	0.8291086797606348	0.8598861235184396	-0.2448655835896433	-0.08516217630795864	-0.3399644433393212	0.8269032722307375	0.8269032722307134	0.06428031131289631	0.1745329170492823	0.2981116305628259	0.04549957439935712	-0.3770488784824265	-0.1082127847304344	-0.4130144544736268	1.655158333911234	-0.02869863561729844	0.3731356883092072	-0.5448580294158702	1.777814226630202	1.777814226630201	-0.1396744264831666	2.855276580180947e-06	0.5802459874948224	0.1163094011739301	-0.1282117767321306	-0.009091374422309497	0.01523474130545574	-0.3465078552713928	0.02858308034750513	-0.004683310498872048	0.1740970247115379	-23.69005733011832	-33.19189758356021	-4.265536105979655	-2.949308442575292	8.399169542149318	-680.1734775258744	58.68716313235543	0.2844751144203033	0.3066390894328953	-0.2002003328658796	-1.442170233394012	0.07852892204006427	-0.3372285552398482	1.486921239854418	-1.877634631767367	-1.87763463176734	0.5742879369975707	-0.02485556843514946	-0.8408359681517545	-0.0524009905004767	-1.012814353055019e-07	-4.831519369316294e-08	1.140082525640255e-06	-4.817652002366199e-07	-1.007211739337313e-07	-9.123296430906756e-08	8.268636594115082e-07
